<?xml version="1.0" encoding="UTF-8" standalone="no"?>
<!-- Created with Inkscape (http://www.inkscape.org/) -->

<svg
   width="297mm"
   height="210mm"
   viewBox="0 0 297 210"
   version="1.1"
   id="svg5"
   inkscape:version="1.2.2 (732a01da63, 2022-12-09, custom)"
   sodipodi:docname="cover.svg"
   xmlns:inkscape="http://www.inkscape.org/namespaces/inkscape"
   xmlns:sodipodi="http://sodipodi.sourceforge.net/DTD/sodipodi-0.dtd"
   xmlns="http://www.w3.org/2000/svg"
   xmlns:svg="http://www.w3.org/2000/svg">
  <sodipodi:namedview
     id="namedview7"
     pagecolor="#ffffff"
     bordercolor="#ffffff"
     borderopacity="1"
     inkscape:showpageshadow="0"
     inkscape:pageopacity="1"
     inkscape:pagecheckerboard="1"
     inkscape:deskcolor="#505050"
     inkscape:document-units="mm"
     showgrid="true"
     inkscape:zoom="1.0708779"
     inkscape:cx="674.68009"
     inkscape:cy="393.13539"
     inkscape:window-width="1920"
     inkscape:window-height="1043"
     inkscape:window-x="1920"
     inkscape:window-y="0"
     inkscape:window-maximized="1"
     inkscape:current-layer="layer1">
    <inkscape:grid
       type="xygrid"
       id="grid132"
       units="mm"
       spacingx="7"
       spacingy="7"
       empspacing="4"
       dotted="true"
       originx="-5.5"
       originy="7"
       enabled="false" />
  </sodipodi:namedview>
  <defs
     id="defs2" />
  <g
     inkscape:label="Слой 1"
     inkscape:groupmode="layer"
     id="layer1">
    <path
       id="rect236"
       style="fill:#62ffff;fill-opacity:1;stroke:#000000"
       d="M 36.647375 20.999752 C 36.565714 20.999752 36.500098 21.065882 36.500098 21.147546 L 36.500098 133.14743 C 36.500098 133.06576 36.565713 133.00015 36.647375 133.00015 L 92.352502 133.00015 C 92.434162 133.00015 92.49978 133.06572 92.49978 133.14743 L 92.49978 160.85271 C 92.49978 160.93437 92.434166 160.99999 92.352502 160.99999 L 36.647375 160.99999 C 36.565713 160.99999 36.500098 160.93437 36.500098 160.85271 L 36.500098 188.85256 C 36.500098 188.93423 36.565714 188.99983 36.647375 188.99983 L 260.35258 188.99983 C 260.43429 188.99983 260.49986 188.93426 260.49986 188.85256 L 260.49986 21.147546 C 260.49986 21.065878 260.43428 20.999752 260.35258 20.999752 L 36.647375 20.999752 z M 92.647575 49.00011 L 120.35234 49.00011 C 120.43404 49.00011 120.50014 49.06572 120.50014 49.147388 L 120.50014 76.852673 C 120.50014 76.934333 120.43405 76.999951 120.35234 76.999951 L 92.647575 76.999951 C 92.565911 76.999951 92.49978 76.934336 92.49978 76.852673 L 92.49978 49.147388 C 92.49978 49.065724 92.565911 49.00011 92.647575 49.00011 z M 148.50153 111.99988 L 176.49827 111.99988 C 176.53787 111.99988 176.56958 112.0317 176.56958 112.0712 L 176.56958 125.49828 C 176.56958 125.53788 176.53777 125.5696 176.49827 125.5696 L 148.50153 125.5696 C 148.46193 125.5696 148.43022 125.53778 148.43022 125.49828 L 148.43022 112.0712 C 148.43022 112.0316 148.46203 111.99988 148.50153 111.99988 z " />
    <path
       id="rect236-3"
       style="fill:#62ffff;fill-opacity:1;stroke:#000000"
       d="m 36.576066,21.071072 c -0.08166,0 -0.147277,0.06613 -0.147277,0.147794 V 133.21875 c 0,-0.0817 0.06562,-0.14728 0.147277,-0.14728 h 55.705127 c 0.08166,0 0.147278,0.0656 0.147278,0.14728 v 27.70528 c 0,0.0817 -0.06561,0.14728 -0.147278,0.14728 H 36.576066 c -0.08166,0 -0.147277,-0.0656 -0.147277,-0.14728 v 27.99985 c 0,0.0817 0.06562,0.14727 0.147277,0.14727 H 260.28127 c 0.0817,0 0.14728,-0.0656 0.14728,-0.14727 V 21.218866 c 0,-0.08167 -0.0656,-0.147794 -0.14728,-0.147794 z m 56.0002,28.000358 h 27.704764 c 0.0817,0 0.1478,0.06561 0.1478,0.147278 v 27.705285 c 0,0.08166 -0.0661,0.147278 -0.1478,0.147278 H 92.576266 c -0.08166,0 -0.147795,-0.06561 -0.147795,-0.147278 V 49.218708 c 0,-0.08166 0.06613,-0.147278 0.147795,-0.147278 z m 55.853954,62.99977 h 27.99674 c 0.0396,0 0.0713,0.0318 0.0713,0.0713 v 13.42708 c 0,0.0396 -0.0318,0.0713 -0.0713,0.0713 h -27.99674 c -0.0396,0 -0.0713,-0.0318 -0.0713,-0.0713 v -13.42706 c 0,-0.0396 0.0318,-0.0713 0.0713,-0.0713 z" />
    <path
       style="fill:#4ccd00;fill-opacity:1;stroke:none;stroke-width:0.264583px;stroke-linecap:butt;stroke-linejoin:miter;stroke-opacity:1"
       d="m 106.5,189 c 3.82084,-9.37755 7.10909,-19.26403 16.22705,-23.89233 C 131.845,160.47937 148.5,168 148.5,168 c 0,0 4.11368,-13.27833 12.44634,-17.70611 8.33266,-4.42778 22.85412,1.14701 22.85412,1.14701 0,0 4.8645,-16.19479 21.10233,-21.37475 16.23783,-5.17996 29.8741,10.582 29.8741,10.582 0,0 8.29517,-4.91576 16.97044,1.02874 8.67527,5.9445 9.25253,26.06449 9.25253,26.06449 0,0 -0.70599,16.74764 -0.49986,21.25862 -35,0 -126,0 -154,0 z"
       id="path14972"
       sodipodi:nodetypes="czczczczccc" />
    <rect
       style="fill:#323232;fill-opacity:1;stroke:#000000;stroke-width:0.805596;stroke-dasharray:none;stroke-opacity:1"
       id="rect14155"
       width="27.194416"
       height="84.194405"
       x="204.90279"
       y="104.9028"
       ry="14.032401" />
    <path
       id="path9576"
       style="fill:#00ff00;fill-opacity:1;stroke:#000000"
       d="M 225.25862,175 A 6.7586207,6.7586246 0 0 1 218.5,181.75862 6.7586207,6.7586246 0 0 1 211.74138,175 6.7586207,6.7586246 0 0 1 218.5,168.24138 6.7586207,6.7586246 0 0 1 225.25862,175 Z" />
    <path
       id="path9578"
       style="fill:#ffff00;fill-opacity:1;stroke:#000000"
       d="M 225.25862,147 A 6.7586207,6.7586207 0 0 1 218.5,153.75862 6.7586207,6.7586207 0 0 1 211.74138,147 6.7586207,6.7586207 0 0 1 218.5,140.24138 6.7586207,6.7586207 0 0 1 225.25862,147 Z" />
    <path
       id="path9580"
       style="fill:#ff0000;fill-opacity:1;stroke:#000000"
       d="M 225.25862,119 A 6.7586203,6.7586203 0 0 1 218.5,125.75862 6.7586203,6.7586203 0 0 1 211.74138,119 6.7586203,6.7586203 0 0 1 218.5,112.24138 6.7586203,6.7586203 0 0 1 225.25862,119 Z" />
    <g
       id="g16741"
       transform="translate(6.3500003)">
      <path
         id="path15752"
         style="fill:#ffff00;stroke-width:0.79329"
         d="m 190.63685,64.667072 a 18.773508,18.368509 0 0 1 -18.7735,18.368509 18.773508,18.368509 0 0 1 -18.77351,-18.368509 18.773508,18.368509 0 0 1 18.77351,-18.368509 18.773508,18.368509 0 0 1 18.7735,18.368509 z" />
      <path
         id="path15806"
         style="fill:#ffff00"
         inkscape:transform-center-x="0.91551897"
         inkscape:transform-center-y="-3.3196084"
         d="m 200.18234,93.007012 c -6.5227,6.517871 -17.8928,-28.184605 -26.1104,-24.001355 -8.21759,4.183251 13.15225,33.795253 4.04416,35.234383 -9.1081,1.43913 2.09091,-33.318935 -7.01611,-34.764797 -9.10703,-1.445862 -9.22397,35.071627 -17.43847,30.882307 -8.21451,-4.189309 21.27597,-25.726572 14.75809,-32.249276 -6.51789,-6.522704 -28.07694,22.951846 -32.26019,14.734248 -4.18325,-8.217597 32.33433,-8.307542 30.8952,-17.415637 -1.43913,-9.108095 -36.20548,2.065223 -34.75962,-7.041806 1.44586,-9.107029 31.04208,12.2847 35.2314,4.070197 4.18932,-8.214503 -30.50475,-19.610246 -23.98205,-26.128131 6.52271,-6.517885 17.8928,28.184606 26.1104,24.001356 8.2176,-4.183251 -13.15225,-33.795268 -4.04416,-35.234398 9.1081,-1.43913 -2.09091,33.31895 7.01612,34.764812 9.10702,1.445862 9.22396,-35.071645 17.43846,-30.882322 8.21451,4.189323 -21.27597,25.726587 -14.75808,32.249291 6.51788,6.522704 28.07693,-22.951846 32.26018,-14.734249 4.18326,8.217598 -32.33433,8.307543 -30.8952,17.415638 1.43913,9.108095 36.20548,-2.065223 34.75962,7.041806 -1.44586,9.107029 -31.04208,-12.2847 -35.2314,-4.070197 -4.18932,8.214503 30.50475,19.610246 23.98205,26.12813 z" />
    </g>
    <text
       xml:space="preserve"
       style="font-size:10.5833px;line-height:1.25;font-family:FreeSerif;-inkscape-font-specification:FreeSerif;stroke-width:0.264583"
       x="80.195244"
       y="41.526707"
       id="text16733"><tspan
         sodipodi:role="line"
         id="tspan16731"
         style="stroke-width:0.264583"
         x="80.195244"
         y="41.526707">Включатель</tspan></text>
    <text
       xml:space="preserve"
       style="font-size:10.5833px;line-height:1.25;font-family:FreeSerif;-inkscape-font-specification:FreeSerif;stroke-width:0.264583"
       x="39.676739"
       y="126.00614"
       id="text16737"><tspan
         sodipodi:role="line"
         id="tspan16735"
         style="stroke-width:0.264583"
         x="39.676739"
         y="126.00614">Управление</tspan></text>
  </g>
</svg>
